HIERARCHY
ROOT Hips
{
	OFFSET 0.000000 0.000000 0.000000
	CHANNELS 6 Xposition Yposition Zposition Yrotation Xrotation Zrotation 
	JOINT LeftHip
	{
		OFFSET 0.098173 -0.000219 0.000024
		CHANNELS 3 Yrotation Xrotation Zrotation
		JOINT LeftKnee
		{
			OFFSET 0.000000 -0.409037 -0.000015
			CHANNELS 3 Yrotation Xrotation Zrotation
			JOINT LeftAnkle
			{
				OFFSET 0.000000 -0.429753 0.000242
				CHANNELS 3 Yrotation Xrotation Zrotation
				JOINT LeftToe
				{
					OFFSET 0.000000 -0.083906 0.181590
					CHANNELS 3 Yrotation Xrotation Zrotation
					End Site
					{
						OFFSET 0.000000 0.000000 0.000000
					}
				}
			}
		}
	}
	JOINT RightHip
	{
		OFFSET -0.098173 -0.000196 0.000022
		CHANNELS 3 Yrotation Xrotation Zrotation
		JOINT RightKnee
		{
			OFFSET 0.000000 -0.409037 -0.000015
			CHANNELS 3 Yrotation Xrotation Zrotation
			JOINT RightAnkle
			{
				OFFSET 0.000000 -0.429753 0.000242
				CHANNELS 3 Yrotation Xrotation Zrotation
				JOINT RightToe
				{
					OFFSET 0.000000 -0.083906 0.181590
					CHANNELS 3 Yrotation Xrotation Zrotation
					End Site
					{
						OFFSET 0.000000 0.000000 0.000000
					}
				}
			}
		}
	}
	JOINT Chest
	{
		OFFSET 0.000000 0.119819 -0.013313
		CHANNELS 3 Yrotation Xrotation Zrotation
		JOINT Chest3
		{
			OFFSET 0.000000 0.213365 -0.010277
			CHANNELS 3 Yrotation Xrotation Zrotation
			JOINT Chest4
			{
				OFFSET 0.000000 0.101957 0.000085
				CHANNELS 3 Yrotation Xrotation Zrotation
				JOINT Neck
				{
					OFFSET 0.000000 0.137769 0.000000
					CHANNELS 3 Yrotation Xrotation Zrotation
					JOINT Head
					{
						OFFSET 0.000000 0.090348 0.000182
						CHANNELS 3 Yrotation Xrotation Zrotation
						End Site
						{
							OFFSET 0.000000 0.000000 0.000000
						}
					}
				}
				JOINT LeftCollar
				{
					OFFSET 0.026598 0.077176 0.000000
					CHANNELS 3 Yrotation Xrotation Zrotation
					JOINT LeftShoulder
					{
						OFFSET 0.125155 0.000000 0.000000
						CHANNELS 3 Yrotation Xrotation Zrotation
						JOINT LeftElbow
						{
							OFFSET 0.295479 0.000000 0.000000
							CHANNELS 3 Yrotation Xrotation Zrotation
							JOINT LeftWrist
							{
								OFFSET 0.250185 0.000000 -0.000004
								CHANNELS 3 Yrotation Xrotation Zrotation
								End Site
								{
									OFFSET 0.000000 0.000000 0.000000
								}
							}
						}
					}
				}
				JOINT RightCollar
				{
					OFFSET -0.026598 0.077176 0.000000
					CHANNELS 3 Yrotation Xrotation Zrotation
					JOINT RightShoulder
					{
						OFFSET -0.125155 0.000000 0.000000
						CHANNELS 3 Yrotation Xrotation Zrotation
						JOINT RightElbow
						{
							OFFSET -0.295479 0.000000 0.000000
							CHANNELS 3 Yrotation Xrotation Zrotation
							JOINT RightWrist
							{
								OFFSET -0.250185 0.000000 -0.000004
								CHANNELS 3 Yrotation Xrotation Zrotation
								End Site
								{
									OFFSET 0.000000 0.000000 0.000000
								}
							}
						}
					}
				}
			}
		}
	}
}
MOTION
Frames: 8
Frame Time: 0.016667
0.000000 0.000000 0.000000 181.757142 0.254366 357.562166 10.795549 4.515519 1.265850 1.934195 7.969107 359.948967 19.869755 348.018143 357.276467 1.281246 359.017037 358.815453 0.541132 352.073159 358.900835 2.494961 11.163805 0.334914 0.619492 357.040262 5.444510 0.019188 358.800612 358.338025 359.804673 353.548166 2.433745 359.089084 348.509585 2.172290 354.435200 3.554557 359.903280 7.676751 21.678592 2.080986 11.419727 6.700306 4.185376 359.662673 2.371517 353.625651 341.950444 324.217284 298.634115 278.541088 325.779852 356.892460 2.211354 4.052003 21.780779 0.410722 0.522111 359.285468 26.951077 321.508901 49.361678 119.174038 54.459197 16.491668 349.892451 22.354669 13.239616 
0.000000 0.000000 0.000000 181.852276 0.263002 357.590461 10.749889 4.538854 1.225849 1.919056 7.871360 359.940794 19.821257 348.055934 357.313414 1.296580 359.033717 358.827775 0.492251 352.051375 358.862598 2.471977 11.173453 0.330446 0.575060 357.046130 5.450433 359.872178 358.676912 358.374850 359.818286 353.518724 2.361478 359.108216 348.488681 2.109163 354.537407 3.608181 359.915684 7.249723 21.615585 2.080120 10.642607 6.505368 4.091923 359.652841 2.452453 353.586969 342.582578 324.380610 297.897280 278.247695 326.129915 356.900029 2.028517 3.943583 23.068709 0.443493 0.539186 359.286620 26.920941 321.531511 49.464768 117.912151 54.664028 15.741258 349.688565 22.443343 12.837650 
0.000000 0.000000 0.000000 182.002776 0.270088 357.622120 10.681484 4.555440 1.184824 1.898227 7.779520 359.934390 19.744498 348.094448 357.355157 1.320121 359.030548 358.834252 0.419165 352.039982 358.819487 2.434859 11.177637 0.325342 0.511342 357.057017 5.458072 359.841148 358.610909 358.417630 359.834841 353.492799 2.275609 359.130958 348.470816 2.034015 354.637098 3.661456 359.928313 6.819155 21.528344 2.078274 9.913527 6.265598 3.965270 359.650476 2.542099 353.543625 343.156783 324.539384 297.211042 277.932242 326.294397 356.982043 1.856080 3.718180 23.954760 0.486594 0.545354 359.282489 26.879254 321.567192 49.545823 116.493246 54.915980 14.912133 349.497160 22.598362 12.483733 
0.000000 0.000000 0.000000 182.211531 0.278583 357.652542 10.587420 4.552043 1.144392 1.875437 7.704940 359.931265 19.637083 348.130812 357.405879 1.354867 359.034410 358.832678 0.323966 352.034840 358.773012 2.387489 11.176013 0.320847 0.430811 357.066851 5.466877 359.805361 358.560842 358.461548 359.850895 353.468776 2.192737 359.153202 348.454192 1.961315 354.740314 3.712247 359.941278 6.378804 21.434655 2.066689 9.213199 5.995706 3.807041 359.649713 2.603577 353.513047 343.623046 324.674665 296.636419 277.657754 326.467798 357.075163 1.601618 3.314558 24.407375 0.531771 0.479914 359.266668 26.940860 321.606594 49.547734 114.940709 55.192764 14.024577 349.286880 22.780622 12.315024 
0.000000 0.000000 0.000000 182.491561 0.291696 357.678875 10.463850 4.523198 1.108429 1.853652 7.646810 359.930516 19.487859 348.165568 357.470646 1.402635 359.053982 358.822841 0.204471 352.037201 358.724355 2.327784 11.164670 0.317462 0.331584 357.070627 5.475717 359.769844 358.537254 358.503944 359.864827 353.442754 2.118901 359.173508 348.435545 1.896308 354.846945 3.760147 359.954304 5.922234 21.346487 2.040645 8.524980 5.712735 3.635649 359.651625 2.637384 353.491242 344.019785 324.793216 296.165041 277.363412 326.743215 357.160115 1.358480 2.890247 24.787949 0.586548 0.362641 359.238253 27.119201 321.631227 49.457508 113.243360 55.469173 13.086843 349.092602 22.946283 12.299616 
0.000000 0.000000 0.000000 182.829873 0.306162 357.704057 10.321871 4.473102 1.074393 1.827396 7.606132 359.931941 19.305278 348.198270 357.545114 1.442346 359.083993 358.810537 0.062528 352.041707 358.672445 2.257965 11.155735 0.314759 0.215804 357.069268 5.485792 359.732226 358.531317 358.543159 359.878018 353.418324 2.048125 359.193379 348.417994 1.833822 354.963826 3.806887 359.967934 5.452541 21.252532 2.005252 7.819729 5.433481 3.478964 359.646988 2.668931 353.475901 344.340289 324.872393 295.775168 277.040956 327.102991 357.271490 1.144402 2.641381 25.233437 0.650706 0.206954 359.194587 27.397992 321.652457 49.272483 111.404508 55.784811 12.076865 348.940450 23.027521 12.375468 
0.000000 0.000000 0.000000 183.189857 0.315275 357.732162 10.171112 4.411366 1.036313 1.800349 7.583618 359.934362 19.109807 348.230479 357.623146 1.448217 359.110625 358.800419 359.909062 352.036264 358.615262 2.185607 11.168349 0.311814 0.092993 357.068400 5.499651 359.677669 358.526398 358.578155 359.890872 353.405906 1.978560 359.213257 348.410241 1.772537 355.094697 3.854144 359.982834 4.982684 21.134845 1.964077 7.074389 5.160712 3.349362 359.628336 2.705411 353.466950 344.561627 324.862515 295.460105 276.687779 327.644338 357.491247 0.968052 2.495233 25.802874 0.725264 359.979672 359.131846 27.813070 321.661832 48.960787 109.440249 56.244754 11.015026 348.838466 22.968511 12.495202 
0.000000 0.000000 0.000000 183.556200 0.311084 357.764985 10.017706 4.346751 0.992781 1.773336 7.580989 359.936777 18.909456 348.260804 357.702314 1.426278 359.124348 358.790624 359.749663 352.045383 358.552158 2.120952 11.162816 0.305398 359.958044 357.094545 5.519117 359.614724 358.509410 358.610098 359.903072 353.412619 1.910224 359.233135 348.418216 1.712637 355.242264 3.904112 359.998917 4.513907 20.985777 1.917682 6.294062 4.882990 3.245467 359.600358 2.743060 353.466890 344.704115 324.761081 295.175215 276.279454 328.431713 357.844524 0.809330 2.371546 26.569789 0.804709 359.669356 359.050923 28.376806 321.646033 48.528965 107.381300 56.958734 9.939264 348.811134 22.788278 12.575600 
